<svg width="413" height="413" viewBox="0 0 413 413" fill="none" xmlns="http://www.w3.org/2000/svg">
<path d="M136.031 103.608C130.135 100.664 123.546 98.6105 117.118 97.2253C115.482 96.8725 113.525 97.155 112.85 95.999C112.765 93.9435 113.468 92.3663 113.995 90.4203C115.957 83.171 120.336 75.7115 125.429 70.1468C135.358 59.2875 149.236 52.8758 163.941 52.3535C165.547 52.2938 166.353 52.3648 167.926 52.6375C169.219 54.2923 170.416 56.1895 171.459 57.9925C177.4 68.2853 190.461 75.36 201.985 76.9335C217.016 78.986 234.846 70.7235 242.621 57.5935C246.279 51.4125 246.181 51.8543 253.559 52.7058C268.024 54.4133 281.201 61.8488 290.139 73.3483C298.594 84.0248 302.384 98.8918 300.654 112.507C297.389 138.234 272.774 160.108 253.614 175.594C249.469 178.943 238.746 186.528 234.269 189.04C228.329 184.813 221.534 176.149 217.899 169.751C220.094 168.981 225.501 165.127 227.566 163.681C238.434 156.073 248.984 147.613 258.459 138.253C269.281 127.564 280.391 112.178 274.759 96.276C269.114 80.344 252.086 72.9903 236.691 79.5078C222.856 85.15 215.419 93.2125 206.461 104.296C192.434 87.4173 169.48 65.8038 146.532 83.957C139.294 89.6828 138.593 95.434 136.031 103.608Z" fill="#DB3E02"/>
<path d="M315.916 112.17C319.551 113.188 322.931 113.957 326.469 115.34C337.826 119.893 347.294 128.18 353.311 138.835C354.746 141.36 355.956 144.005 356.931 146.74C357.956 149.612 362.471 165.798 359.621 167.963C356.656 170.215 351.239 173.022 348.436 176.077C335.041 189.217 331.894 210.66 340.511 227.223C343.386 232.748 348.944 238.688 354.231 242.033C355.899 243.088 359.179 244.923 360.439 246.17C360.944 259.598 355.224 273.61 346.154 283.425C336.399 294 322.834 300.253 308.459 300.798C288.616 301.4 271.141 288.548 257.491 275.503C247.931 266.195 239.136 256.13 231.196 245.405C228.476 241.68 226.201 237.713 223.626 234.183C229.139 227.708 234.324 222.565 241.521 217.863C243.651 220.265 245.381 223.585 247.299 226.22C249.921 229.828 252.564 233.433 255.279 236.975C266.744 251.003 286.274 273.833 305.384 275.848C312.151 276.56 320.899 273.245 325.844 268.79C331.239 263.933 334.836 256.948 335.309 249.705C336.009 238.955 329.949 227.78 323.009 219.978C318.906 215.368 313.031 209.47 307.744 206.469C313.661 201.682 319.179 197.347 324.074 191.409C334.701 178.521 340.604 160.908 328.949 146.654C324.386 141.076 317.806 137.098 310.531 136.39C310.094 136.347 309.656 136.312 309.216 136.284C312.839 126.687 314.681 122.906 315.916 112.17Z" fill="#F7A807"/>
<path d="M52.529 166.108C52.3343 162.383 52.8108 159.286 53.4543 155.636C58.5593 126.676 87.38 106.309 116.388 112.593C127.304 114.958 135.004 119.739 143.837 126.307C161.844 139.697 175.295 156.638 187.485 175.29C183.279 180.762 175.858 189.315 169.958 192.777C166.579 188.456 163.182 182.682 159.72 178.074C150.495 165.798 139.176 153.311 126.93 144.048C119.228 138.222 110.964 134.731 101.241 136.342C93.6833 137.649 86.9668 141.936 82.599 148.242C67.8878 169.252 88.0973 194.16 105.268 206.102C104.101 206.963 102.711 207.717 101.57 208.613C88.4408 218.943 74.9458 235.446 78.0518 253.278C80.0388 264.686 92.6028 275.538 104.138 275.551C101.325 282.908 97.6158 289.656 97.3053 297.826C97.2098 300.336 93.0573 298.636 91.6605 298.211C83.552 295.806 76.0853 291.616 69.8088 285.948C57.733 274.841 53.0248 261.173 52.316 245.196C53.2553 243.723 54.1938 243.158 55.6855 242.318C73.4655 232.253 80.7758 212.658 75.443 193.134C71.8258 179.89 64.16 172.543 52.529 166.108Z" fill="#89C747"/>
<path d="M175.923 224.723C181.501 229.358 187.773 236.785 191.17 243.373C188.885 245.87 180.564 251.22 177.318 253.69C164.366 263.545 151.81 274.523 142.775 288.203C138.208 295.21 135.33 303.66 136.963 312.018C140.037 327.748 155.748 337.835 171.367 333.905C184.707 330.548 198.72 319.268 206.016 307.543C208.474 310.243 210.779 313.688 213.129 316.153C221.454 324.625 232.256 333.068 244.381 334.62C261.801 336.853 274.351 324.69 276.304 308.013C281.419 310.903 287.766 313.208 293.466 314.565C295.016 314.935 298.991 315.268 300.084 315.968C300.339 317.273 299.359 320.068 298.939 321.418C296.274 330.28 291.379 338.308 284.719 344.733C274.211 354.79 259.521 360.01 245.036 359.68C243.204 356.443 241.226 352.928 238.744 350.14C230.934 341.37 221.209 335.988 209.391 335.243C194.613 334.313 180.936 340.14 171.913 352.008C170.98 353.235 167.709 359.01 167.018 359.273C164.532 360.215 155.494 358.618 153.132 358.005C138.634 354.245 126.915 346.36 119.162 333.53C111.967 321.645 109.879 307.36 113.373 293.913C119.986 267.508 153.521 238.01 175.923 224.723Z" fill="#5385BC"/>
<path d="M187.342 175.487C195.441 164.039 200.371 151.467 202.799 137.659C203.074 136.092 203.602 131.711 204.433 130.529C205.314 130.719 205.517 134.013 205.666 134.955C207.254 145.011 211.531 161.767 217.899 169.751C221.534 176.149 228.329 184.813 234.269 189.04C244.116 197.101 258.871 204.655 271.734 205.848L271.984 206.144C270.649 207.113 265.416 207.802 263.491 208.343C255.731 210.527 248.376 213.515 241.521 217.863C234.324 222.565 229.139 227.708 223.626 234.183C214.299 246.128 209.066 259.638 206.213 274.395C205.74 277.805 205.552 281.473 205.059 284.73C204.043 281.783 203.511 279.683 203.191 276.595C201.889 266.99 196.772 251.145 191.17 243.373C187.773 236.785 181.501 229.358 175.923 224.723C166.939 216.255 157.381 211.84 145.62 208.267C142.721 207.386 139.255 207.303 136.456 206.25L136.146 206.13C138.57 205.447 141.66 205.207 144.289 204.484C152.166 202.315 163.291 197.856 169.815 192.974C175.714 189.512 183.135 180.959 187.342 175.487Z" fill="#FFE500"/>
<path d="M374.876 173.02C393.569 170.844 410.469 184.277 412.564 202.977C414.661 221.678 401.159 238.518 382.449 240.538C363.851 242.543 347.131 229.138 345.046 210.549C342.961 191.96 356.299 175.183 374.876 173.02Z" fill="#F7A807"/>
<path d="M203.811 0.145548C222.516 -1.57795 239.066 12.2043 240.761 30.9108C242.454 49.617 228.644 66.1468 209.934 67.8088C191.269 69.4668 174.786 55.6966 173.097 37.0336C171.408 18.3706 185.151 1.86505 203.811 0.145548Z" fill="#DB3E02"/>
<path d="M30.2543 171.661C48.942 169.608 65.7423 183.127 67.7333 201.822C69.7243 220.518 56.1483 237.273 37.4473 239.2C18.8343 241.12 2.17528 227.62 0.193779 209.015C-1.78797 190.409 11.6545 173.705 30.2543 171.661Z" fill="#89C747"/>
<path d="M203.403 344.566C221.932 343.041 238.227 356.739 239.907 375.254C241.589 393.769 228.029 410.179 209.529 412.016C190.807 413.874 174.159 400.116 172.457 381.379C170.755 362.644 184.653 346.111 203.403 344.566Z" fill="#5385BC"/>
</svg>
